<svg width="176" height="240" viewBox="0 0 176 240" fill="none" xmlns="http://www.w3.org/2000/svg" role="img" aria-labelledby="title desc">
  <title id="title">默认图书封面</title>
  <desc id="desc">用于没有封面图片时展示的默认图书封面</desc>
  <rect width="176" height="240" rx="18" fill="#F4F0E8"/>
  <rect x="12" y="12" width="152" height="216" rx="12" fill="#FFFDF8" stroke="#D8CCBA" stroke-width="2"/>
  <path d="M45 54C45 48.4772 49.4772 44 55 44H121C126.523 44 131 48.4772 131 54V171C131 176.523 126.523 181 121 181H55C49.4772 181 45 176.523 45 171V54Z" fill="#2F3A32"/>
  <path d="M58 44H121C126.523 44 131 48.4772 131 54V171C131 176.523 126.523 181 121 181H58V44Z" fill="#3F4C42"/>
  <path d="M61 67H115" stroke="#E8DCC8" stroke-width="5" stroke-linecap="round"/>
  <path d="M61 86H108" stroke="#C9A66B" stroke-width="5" stroke-linecap="round"/>
  <path d="M61 148H99" stroke="#E8DCC8" stroke-width="4" stroke-linecap="round"/>
  <path d="M56 189H120" stroke="#D8CCBA" stroke-width="4" stroke-linecap="round"/>
  <path d="M68 202H108" stroke="#D8CCBA" stroke-width="4" stroke-linecap="round"/>
  <path d="M45 58H37C34.7909 58 33 59.7909 33 62V174C33 176.209 34.7909 178 37 178H45V58Z" fill="#C9A66B"/>
  <circle cx="121" cy="62" r="4" fill="#F4F0E8"/>
</svg>
